<svg width="69" height="20" viewBox="0 0 69 20" fill="none" xmlns="http://www.w3.org/2000/svg">
<path d="M1.39844 19.2812C1.17969 19.1406 1.00781 18.9609 0.882812 18.7422C0.742188 18.5234 0.632812 18.2891 0.554688 18.0391C0.460938 17.7891 0.390625 17.5312 0.34375 17.2656C0.28125 16.9844 0.21875 16.7188 0.15625 16.4688C0.15625 16.25 0.203125 16.0938 0.296875 16C0.390625 15.8906 0.492188 15.7891 0.601562 15.6953C0.976562 15.6797 1.3125 15.6484 1.60938 15.6016C1.90625 15.5547 2.19531 15.5078 2.47656 15.4609C2.75781 15.4141 3.03906 15.375 3.32031 15.3438C3.60156 15.2969 3.90625 15.2734 4.23438 15.2734C4.46875 14.7891 4.6875 14.3281 4.89062 13.8906C5.09375 13.4375 5.28906 13.0078 5.47656 12.6016C5.57031 12.2109 5.6875 11.8516 5.82812 11.5234C5.98438 11.1797 6.13281 10.8594 6.27344 10.5625C6.41406 10.25 6.53906 9.94531 6.64844 9.64844C6.75781 9.33594 6.82812 9.00781 6.85938 8.66406C7.04688 8.11719 7.21094 7.61719 7.35156 7.16406C7.50781 6.69531 7.625 6.14062 7.70312 5.5C7.10938 5.59375 6.63281 5.6875 6.27344 5.78125C5.91406 5.85938 5.65625 5.9375 5.5 6.01562C5.1875 6 4.9375 5.9375 4.75 5.82812C4.57812 5.71875 4.4375 5.58594 4.32812 5.42969C4.21875 5.27344 4.125 5.09375 4.04688 4.89062C3.96875 4.6875 3.875 4.47656 3.76562 4.25781C3.82812 4.11719 3.84375 3.91406 3.8125 3.64844C3.78125 3.36719 3.6875 3.16406 3.53125 3.03906C3.65625 3.00781 3.75 2.90625 3.8125 2.73438C3.875 2.54688 3.88281 2.40625 3.83594 2.3125C4.10156 2.23438 4.38281 2.1875 4.67969 2.17188C4.97656 2.14062 5.26562 2.11719 5.54688 2.10156C5.84375 2.07031 6.125 2.03906 6.39062 2.00781C6.65625 1.96094 6.88281 1.875 7.07031 1.75C7.88281 1.71875 8.72656 1.6875 9.60156 1.65625C10.4922 1.625 11.3125 1.58594 12.0625 1.53906C12.3438 1.63281 12.6641 1.67969 13.0234 1.67969C13.3984 1.67969 13.7656 1.70312 14.125 1.75C14.5 1.79688 14.8281 1.89844 15.1094 2.05469C15.4062 2.21094 15.6094 2.48438 15.7188 2.875C15.9531 2.90625 16.125 2.96875 16.2344 3.0625C16.3594 3.15625 16.4375 3.27344 16.4688 3.41406C16.5 3.53906 16.5078 3.6875 16.4922 3.85938C16.4922 4.01562 16.4922 4.17188 16.4922 4.32812C16.2422 4.51562 15.9219 4.67188 15.5312 4.79688C15.1562 4.90625 14.7422 5 14.2891 5.07812C13.8359 5.14062 13.3594 5.1875 12.8594 5.21875C12.375 5.23438 11.8984 5.25 11.4297 5.26562C11.3516 5.78125 11.2109 6.39062 11.0078 7.09375C10.8203 7.78125 10.625 8.46094 10.4219 9.13281C10.2188 9.78906 10.0391 10.3828 9.88281 10.9141C9.74219 11.4297 9.67969 11.7656 9.69531 11.9219C9.53906 12.2812 9.40625 12.5859 9.29688 12.8359C9.20312 13.0859 9.10938 13.3203 9.01562 13.5391C8.9375 13.7578 8.85156 13.9766 8.75781 14.1953C8.67969 14.3984 8.57812 14.6328 8.45312 14.8984H10.0469C10.0781 15.0703 10.1484 15.1875 10.2578 15.25C10.3672 15.3125 10.4844 15.3672 10.6094 15.4141C10.7344 15.4609 10.8438 15.5234 10.9375 15.6016C11.0469 15.6641 11.1016 15.7734 11.1016 15.9297C11.3984 16.0078 11.5859 16.125 11.6641 16.2812C11.7422 16.4375 11.7578 16.6094 11.7109 16.7969C11.6797 16.9688 11.6016 17.1484 11.4766 17.3359C11.3672 17.5234 11.2578 17.6875 11.1484 17.8281C11.0078 17.7969 10.875 17.8359 10.75 17.9453C10.625 18.0391 10.5078 18.1484 10.3984 18.2734C9.94531 18.2109 9.5 18.2031 9.0625 18.25C8.625 18.2969 8.21875 18.3359 7.84375 18.3672C7.76562 18.3828 7.73438 18.4297 7.75 18.5078C7.76562 18.5703 7.75 18.6172 7.70312 18.6484C7.21875 18.4922 6.71875 18.4297 6.20312 18.4609C5.70312 18.4922 5.1875 18.5703 4.65625 18.6953C4.14062 18.8047 3.60938 18.9219 3.0625 19.0469C2.51562 19.1875 1.96094 19.2656 1.39844 19.2812ZM20.3125 4.77344C20.2969 4.85156 20.2578 4.89844 20.1953 4.91406C20.1484 4.91406 20.1094 4.95312 20.0781 5.03125C20.0156 5.20312 19.9766 5.3125 19.9609 5.35938C19.9453 5.39062 19.9297 5.41406 19.9141 5.42969C19.8984 5.42969 19.875 5.44531 19.8438 5.47656C19.8281 5.50781 19.7891 5.60156 19.7266 5.75781C19.6172 5.97656 19.4766 6.20312 19.3047 6.4375C19.1484 6.65625 19.0469 6.875 19 7.09375C18.7812 7.28125 18.5078 7.52344 18.1797 7.82031C17.8672 8.10156 17.5703 8.29688 17.2891 8.40625C17.1484 8.34375 16.9219 8.25 16.6094 8.125C16.3125 7.98438 16.0234 7.82812 15.7422 7.65625C15.4766 7.46875 15.2734 7.28125 15.1328 7.09375C14.9922 6.89062 15.0078 6.69531 15.1797 6.50781C15.4609 6.21094 15.7031 5.85938 15.9062 5.45312C16.125 5.03125 16.3125 4.58594 16.4688 4.11719C16.6406 3.63281 16.7812 3.14062 16.8906 2.64062C17.0156 2.125 17.125 1.63281 17.2188 1.16406C17.2812 1.22656 17.3438 1.25 17.4062 1.23438C17.4844 1.20312 17.5469 1.16406 17.5938 1.11719C17.6562 1.05469 17.7109 0.984375 17.7578 0.90625C17.8203 0.828125 17.8672 0.765625 17.8984 0.71875C17.9922 0.796875 18.1484 0.890625 18.3672 1C18.6016 1.10938 18.8438 1.21875 19.0938 1.32812C19.3438 1.42188 19.5781 1.50781 19.7969 1.58594C20.0156 1.66406 20.1719 1.71094 20.2656 1.72656C20.4531 2.02344 20.5547 2.29688 20.5703 2.54688C20.5859 2.78125 20.625 3.03125 20.6875 3.29688C20.5938 3.375 20.5391 3.50781 20.5234 3.69531C20.5078 3.86719 20.4922 3.99219 20.4766 4.07031C20.4609 4.19531 20.4297 4.27344 20.3828 4.30469C20.3516 4.32031 20.3203 4.38281 20.2891 4.49219C20.2734 4.52344 20.2734 4.57031 20.2891 4.63281C20.3203 4.69531 20.3281 4.74219 20.3125 4.77344ZM34.375 18.5781C34.2188 18.6562 34.0703 18.7266 33.9297 18.7891C33.8047 18.8516 33.6562 18.8828 33.4844 18.8828C32.875 18.4297 32.5547 17.6406 32.5234 16.5156C32.5078 15.3906 32.75 13.9609 33.25 12.2266C33.3281 12.1797 33.3672 12.0859 33.3672 11.9453L33.1562 11.7109C33.0938 11.7109 33.0312 11.7188 32.9688 11.7344C32.9219 11.75 32.8828 11.8047 32.8516 11.8984C32.4453 12.1953 32 12.5078 31.5156 12.8359C31.0312 13.1484 30.5234 13.4453 29.9922 13.7266C29.4766 13.9922 28.9453 14.2109 28.3984 14.3828C27.8672 14.5547 27.3438 14.6406 26.8281 14.6406C25.5156 14.6406 24.5312 13.9766 23.875 12.6484L23.6875 12.2969L23.5 12.6016C23.4531 12.6641 23.3828 12.7969 23.2891 13C23.1953 13.1875 23.1016 13.4062 23.0078 13.6562C22.9141 13.9062 22.8281 14.1641 22.75 14.4297C22.6875 14.6797 22.6641 14.8984 22.6797 15.0859C22.5391 15.2266 22.3906 15.3906 22.2344 15.5781C22.0781 15.7656 21.9609 15.9766 21.8828 16.2109C21.8516 16.3359 21.8672 16.4531 21.9297 16.5625C21.8984 16.7031 21.8281 16.8125 21.7188 16.8906C21.6562 16.9688 21.5859 17.0469 21.5078 17.125C21.4453 17.1875 21.3906 17.2578 21.3438 17.3359C21.3125 17.4141 21.2891 17.4922 21.2734 17.5703C21.2734 17.6484 21.2656 17.7266 21.25 17.8047C21.25 17.9141 21.2344 18.0156 21.2031 18.1094C20.9375 18.6562 20.7266 19.0078 20.5703 19.1641C20.4141 19.3359 20.2031 19.4219 19.9375 19.4219C19.8125 19.4219 19.6094 19.3984 19.3281 19.3516C19.125 19.1328 18.9375 18.8359 18.7656 18.4609C18.6094 18.0703 18.4844 17.6562 18.3906 17.2188C18.3125 16.7812 18.2734 16.3438 18.2734 15.9062C18.2891 15.4531 18.3672 15.0625 18.5078 14.7344C18.5078 14.7188 18.5703 14.5625 18.6953 14.2656C18.8203 13.9688 18.9766 13.5859 19.1641 13.1172C19.3672 12.6484 19.5938 12.1328 19.8438 11.5703C20.0938 10.9922 20.3438 10.4375 20.5938 9.90625C20.8438 9.35938 21.0781 8.85938 21.2969 8.40625C21.5312 7.95312 21.7266 7.60938 21.8828 7.375C22.0078 7.1875 22.1172 7.01562 22.2109 6.85938C22.3203 6.6875 22.4219 6.52344 22.5156 6.36719C22.7969 5.88281 23.0625 5.48438 23.3125 5.17188C23.5781 4.84375 23.9609 4.58594 24.4609 4.39844C24.8047 4.53906 25.0547 4.70312 25.2109 4.89062L25.2578 5.14844C25.3203 5.30469 25.4141 5.38281 25.5391 5.38281C25.7109 5.42969 25.8516 5.47656 25.9609 5.52344C26.0859 5.55469 26.2188 5.58594 26.3594 5.61719C26.4688 5.74219 26.5703 5.89062 26.6641 6.0625C26.7891 6.25 26.9062 6.4375 27.0156 6.625C27.1406 6.79688 27.2344 6.97656 27.2969 7.16406C27.375 7.33594 27.4141 7.51562 27.4141 7.70312C27.4297 7.89062 27.3984 8.08594 27.3203 8.28906L27.3438 8.52344C27.4219 8.66406 27.4375 8.85938 27.3906 9.10938C27.375 9.21875 27.3672 9.33594 27.3672 9.46094C27.3672 9.57031 27.3828 9.69531 27.4141 9.83594C27.6953 10.0547 27.9453 10.1641 28.1641 10.1641C28.4141 10.1641 28.6406 10.1094 28.8438 10C29.0625 9.875 29.2656 9.75 29.4531 9.625C29.5781 9.53125 29.7031 9.45312 29.8281 9.39062C29.9531 9.3125 30.0781 9.26562 30.2031 9.25C30.4844 8.98438 30.7344 8.75 30.9531 8.54688C31.1875 8.34375 31.4297 8.14062 31.6797 7.9375C32.1484 7.5625 32.6016 7.15625 33.0391 6.71875C33.4766 6.28125 33.8281 5.73438 34.0938 5.07812C34.25 4.98438 34.4141 4.9375 34.5859 4.9375C34.7578 4.9375 34.9375 4.97656 35.125 5.05469C35.3125 5.13281 35.4922 5.21094 35.6641 5.28906C35.7109 5.32031 35.75 5.34375 35.7812 5.35938C35.8281 5.375 35.8672 5.39062 35.8984 5.40625C35.8984 5.5625 35.9609 5.69531 36.0859 5.80469C36.1484 5.85156 36.1875 5.88281 36.2031 5.89844C36.2188 5.91406 36.2422 5.92969 36.2734 5.94531C36.5078 6.07031 36.6562 6.19531 36.7188 6.32031C36.8281 6.67969 37.0234 6.95312 37.3047 7.14062C37.2734 7.29688 37.2734 7.44531 37.3047 7.58594C37.3516 7.71094 37.4062 7.84375 37.4688 7.98438C37.4844 8.03125 37.5 8.07812 37.5156 8.125C37.5312 8.17188 37.5547 8.22656 37.5859 8.28906L37.1406 8.24219L37.2109 8.6875C37.2422 8.90625 37.2188 9.14844 37.1406 9.41406C37.0781 9.67969 37 9.89062 36.9062 10.0469C36.9219 10.4531 36.9297 10.7734 36.9297 11.0078C36.9453 11.2266 36.9375 11.4375 36.9062 11.6406C36.875 11.8281 36.8281 12.0078 36.7656 12.1797C36.7188 12.3516 36.6484 12.5391 36.5547 12.7422C36.6172 13.7422 36.5 14.6562 36.2031 15.4844C35.9219 16.2969 35.625 17.0625 35.3125 17.7812C35.2812 17.8594 35.2422 17.9375 35.1953 18.0156C35.1641 18.0938 35.1328 18.1719 35.1016 18.25C34.9609 18.2969 34.8359 18.3516 34.7266 18.4141C34.6172 18.4609 34.5 18.5156 34.375 18.5781ZM51.5547 17.3594C51.6328 17.8281 51.6016 18.1953 51.4609 18.4609C51.3359 18.7266 51.1484 18.9219 50.8984 19.0469C50.6641 19.1875 50.3906 19.2656 50.0781 19.2812C49.7656 19.2969 49.4688 19.2812 49.1875 19.2344C49.0312 19.0156 48.8906 18.7422 48.7656 18.4141C48.6406 18.0859 48.5234 17.75 48.4141 17.4062C48.3047 17.0469 48.2031 16.6953 48.1094 16.3516C48.0312 16.0078 47.9609 15.7031 47.8984 15.4375C47.9766 15.25 48.0234 15.0391 48.0391 14.8047C48.0703 14.5547 48.0859 14.3047 48.0859 14.0547C48.1016 13.8047 48.1094 13.5547 48.1094 13.3047C48.125 13.0391 48.1484 12.7891 48.1797 12.5547C48.2891 11.8984 48.4453 11.2734 48.6484 10.6797C48.8672 10.0859 49.0391 9.46875 49.1641 8.82812C49.1953 8.6875 49.1797 8.55469 49.1172 8.42969C49.0703 8.30469 49.0625 8.1875 49.0938 8.07812C49.1094 8.01562 49.1562 7.97656 49.2344 7.96094C49.3125 7.92969 49.3594 7.875 49.375 7.79688C49.4219 7.625 49.4297 7.48438 49.3984 7.375C49.3828 7.26562 49.4141 7.13281 49.4922 6.97656C49.5703 6.85156 49.6641 6.67188 49.7734 6.4375C49.8984 6.1875 49.9453 5.92969 49.9141 5.66406C50.0547 5.57031 50.1875 5.46094 50.3125 5.33594C50.4375 5.21094 50.5625 5.10156 50.6875 5.00781C50.8281 4.89844 50.9766 4.80469 51.1328 4.72656C51.3047 4.64844 51.5078 4.60938 51.7422 4.60938C51.8672 4.76562 51.9453 4.9375 51.9766 5.125C52.0234 5.3125 52.0625 5.5 52.0938 5.6875C52.1406 5.875 52.2031 6.05469 52.2812 6.22656C52.3594 6.38281 52.4922 6.50781 52.6797 6.60156C52.6797 6.72656 52.6797 6.88281 52.6797 7.07031C52.6797 7.25781 52.6875 7.44531 52.7031 7.63281C52.7188 7.80469 52.75 7.96875 52.7969 8.125C52.8594 8.26562 52.9531 8.35938 53.0781 8.40625C52.7969 9.15625 52.5312 9.89844 52.2812 10.6328C52.0469 11.3672 51.8516 12.1094 51.6953 12.8594C51.5391 13.5938 51.4375 14.3359 51.3906 15.0859C51.3594 15.8359 51.4141 16.5938 51.5547 17.3594ZM59.0781 14.7344C58.9375 14.7656 58.8359 14.8516 58.7734 14.9922C58.7109 15.1172 58.6484 15.25 58.5859 15.3906C58.5391 15.5312 58.4844 15.6641 58.4219 15.7891C58.375 15.8984 58.2969 15.9531 58.1875 15.9531C58.1719 16.0781 58.125 16.1875 58.0469 16.2812C57.9844 16.375 57.9219 16.4766 57.8594 16.5859C57.7969 16.6797 57.75 16.7891 57.7188 16.9141C57.6875 17.0234 57.7031 17.1562 57.7656 17.3125C57.6406 17.4062 57.5625 17.5391 57.5312 17.7109C57.5 17.8828 57.4609 18.0469 57.4141 18.2031C57.3828 18.3594 57.3203 18.4922 57.2266 18.6016C57.1328 18.7109 56.9609 18.7578 56.7109 18.7422C56.6641 18.8047 56.6562 18.8438 56.6875 18.8594C56.7188 18.875 56.7422 18.9297 56.7578 19.0234C56.5859 18.9922 56.4531 19 56.3594 19.0469C56.2812 19.1094 56.1797 19.1484 56.0547 19.1641C55.7578 19.0703 55.5078 18.9062 55.3047 18.6719C55.1172 18.4375 54.9453 18.1797 54.7891 17.8984C54.6484 17.6016 54.5156 17.3047 54.3906 17.0078C54.2812 16.7109 54.1719 16.4531 54.0625 16.2344C54.1094 16.0625 54.1172 15.8984 54.0859 15.7422C54.0547 15.5703 54 15.4297 53.9219 15.3203C54.6875 13.6953 55.5234 11.9609 56.4297 10.1172C57.3359 8.27344 58.1953 6.45312 59.0078 4.65625C59.3672 4.79688 59.7188 4.96094 60.0625 5.14844C60.4219 5.32031 60.7422 5.52344 61.0234 5.75781C61.3203 5.99219 61.5703 6.26562 61.7734 6.57812C61.9766 6.875 62.1094 7.21094 62.1719 7.58594C62.1406 7.67969 62.1016 7.71875 62.0547 7.70312C62.0234 7.67188 61.9922 7.67969 61.9609 7.72656C62.0234 7.80469 62.0547 7.85938 62.0547 7.89062C62.0703 7.92188 62.0703 7.95312 62.0547 7.98438C62.0547 8.01562 62.0547 8.0625 62.0547 8.125C62.0547 8.17188 62.0781 8.24219 62.125 8.33594C62.0625 8.32031 62.0156 8.32812 61.9844 8.35938C61.9688 8.39062 61.9219 8.39062 61.8438 8.35938C61.9062 8.53125 61.9219 8.67188 61.8906 8.78125C61.875 8.89062 61.8438 8.99219 61.7969 9.08594C61.75 9.16406 61.7109 9.25781 61.6797 9.36719C61.6484 9.46094 61.6562 9.58594 61.7031 9.74219C61.6562 9.74219 61.6172 9.75781 61.5859 9.78906C61.5703 9.80469 61.5547 9.82812 61.5391 9.85938C61.5234 9.875 61.5 9.89844 61.4688 9.92969C61.4531 9.94531 61.4219 9.94531 61.375 9.92969C61.4219 10.2734 61.4375 10.6172 61.4219 10.9609C61.4062 11.3047 61.3906 11.6562 61.375 12.0156C61.375 12.3594 61.3828 12.7266 61.3984 13.1172C61.4141 13.4922 61.4688 13.8828 61.5625 14.2891C62.125 13.9609 62.5703 13.5391 62.8984 13.0234C63.2422 12.5078 63.5156 11.9297 63.7188 11.2891C63.9375 10.6484 64.1016 9.96094 64.2109 9.22656C64.3203 8.49219 64.4375 7.74219 64.5625 6.97656C64.7031 6.83594 64.8125 6.66406 64.8906 6.46094C64.9688 6.25781 65.0391 6.04688 65.1016 5.82812C65.1641 5.59375 65.2266 5.36719 65.2891 5.14844C65.3516 4.91406 65.4297 4.70312 65.5234 4.51562C65.7578 4.54688 65.9531 4.625 66.1094 4.75C66.2812 4.85938 66.4375 4.98438 66.5781 5.125C66.7188 5.25 66.8672 5.375 67.0234 5.5C67.1797 5.60938 67.375 5.67969 67.6094 5.71094C67.7969 5.97656 67.9688 6.23438 68.125 6.48438C68.2812 6.73438 68.3828 7 68.4297 7.28125C68.3516 7.40625 68.2891 7.54688 68.2422 7.70312C68.2109 7.85938 68.1719 8.01562 68.125 8.17188C68.0781 8.32812 68.0156 8.47656 67.9375 8.61719C67.8594 8.74219 67.75 8.85156 67.6094 8.94531C67.5625 9.35156 67.5 9.72656 67.4219 10.0703C67.3594 10.3984 67.2891 10.7266 67.2109 11.0547C67.1484 11.3828 67.0938 11.7266 67.0469 12.0859C67 12.4297 66.9844 12.8125 67 13.2344C66.875 13.5938 66.7422 13.9766 66.6016 14.3828C66.4609 14.7891 66.3516 15.1562 66.2734 15.4844C66.0234 15.6875 65.8281 15.9297 65.6875 16.2109C65.5469 16.4922 65.3984 16.7734 65.2422 17.0547C65.1797 17.1172 65.1406 17.1328 65.125 17.1016C65.1094 17.0703 65.0547 17.0469 64.9609 17.0312C64.9766 17.0938 64.9766 17.1406 64.9609 17.1719C64.9453 17.2031 64.9219 17.2344 64.8906 17.2656C64.875 17.2812 64.8594 17.3125 64.8438 17.3594C64.8438 17.4062 64.8594 17.4688 64.8906 17.5469C64.6719 17.6406 64.4766 17.7734 64.3047 17.9453C64.1328 18.1172 63.9453 18.2734 63.7422 18.4141C63.5547 18.5547 63.3203 18.6484 63.0391 18.6953C62.7734 18.7422 62.4219 18.6875 61.9844 18.5312C61.3438 18.0625 60.7734 17.5234 60.2734 16.9141C59.7891 16.3047 59.3906 15.5781 59.0781 14.7344Z" fill="#00C2FF" fill-opacity="0.79"/>
</svg>
