<svg width="365" height="101" viewBox="0 0 365 101" fill="none" xmlns="http://www.w3.org/2000/svg">
<path d="M7.125 99.5C5.95833 98.75 5.04167 97.7917 4.375 96.625C3.625 95.4583 3.04167 94.2083 2.625 92.875C2.125 91.5417 1.75 90.1667 1.5 88.75C1.16667 87.25 0.833333 85.8333 0.5 84.5C0.5 83.3333 0.75 82.5 1.25 82C1.75 81.4167 2.29167 80.875 2.875 80.375C4.875 80.2917 6.66667 80.125 8.25 79.875C9.83333 79.625 11.375 79.375 12.875 79.125C14.375 78.875 15.875 78.6667 17.375 78.5C18.875 78.25 20.5 78.125 22.25 78.125C23.5 75.5417 24.6667 73.0833 25.75 70.75C26.8333 68.3333 27.875 66.0417 28.875 63.875C29.375 61.7917 30 59.875 30.75 58.125C31.5833 56.2917 32.375 54.5833 33.125 53C33.875 51.3333 34.5417 49.7083 35.125 48.125C35.7083 46.4583 36.0833 44.7083 36.25 42.875C37.25 39.9583 38.125 37.2917 38.875 34.875C39.7083 32.375 40.3333 29.4167 40.75 26C37.5833 26.5 35.0417 27 33.125 27.5C31.2083 27.9167 29.8333 28.3333 29 28.75C27.3333 28.6667 26 28.3333 25 27.75C24.0833 27.1667 23.3333 26.4583 22.75 25.625C22.1667 24.7917 21.6667 23.8333 21.25 22.75C20.8333 21.6667 20.3333 20.5417 19.75 19.375C20.0833 18.625 20.1667 17.5417 20 16.125C19.8333 14.625 19.3333 13.5417 18.5 12.875C19.1667 12.7083 19.6667 12.1667 20 11.25C20.3333 10.25 20.375 9.5 20.125 9C21.5417 8.58333 23.0417 8.33333 24.625 8.25C26.2083 8.08333 27.75 7.95833 29.25 7.875C30.8333 7.70833 32.3333 7.54167 33.75 7.375C35.1667 7.125 36.375 6.66667 37.375 6C41.7083 5.83333 46.2083 5.66667 50.875 5.5C55.625 5.33333 60 5.125 64 4.875C65.5 5.375 67.2083 5.625 69.125 5.625C71.125 5.625 73.0833 5.75 75 6C77 6.25 78.75 6.79167 80.25 7.625C81.8333 8.45833 82.9167 9.91667 83.5 12C84.75 12.1667 85.6667 12.5 86.25 13C86.9167 13.5 87.3333 14.125 87.5 14.875C87.6667 15.5417 87.7083 16.3333 87.625 17.25C87.625 18.0833 87.625 18.9167 87.625 19.75C86.2917 20.75 84.5833 21.5833 82.5 22.25C80.5 22.8333 78.2917 23.3333 75.875 23.75C73.4583 24.0833 70.9167 24.3333 68.25 24.5C65.6667 24.5833 63.125 24.6667 60.625 24.75C60.2083 27.5 59.4583 30.75 58.375 34.5C57.375 38.1667 56.3333 41.7917 55.25 45.375C54.1667 48.875 53.2083 52.0417 52.375 54.875C51.625 57.625 51.2917 59.4167 51.375 60.25C50.5417 62.1667 49.8333 63.7917 49.25 65.125C48.75 66.4583 48.25 67.7083 47.75 68.875C47.3333 70.0417 46.875 71.2083 46.375 72.375C45.9583 73.4583 45.4167 74.7083 44.75 76.125H53.25C53.4167 77.0417 53.7917 77.6667 54.375 78C54.9583 78.3333 55.5833 78.625 56.25 78.875C56.9167 79.125 57.5 79.4583 58 79.875C58.5833 80.2083 58.875 80.7917 58.875 81.625C60.4583 82.0417 61.4583 82.6667 61.875 83.5C62.2917 84.3333 62.375 85.25 62.125 86.25C61.9583 87.1667 61.5417 88.125 60.875 89.125C60.2917 90.125 59.7083 91 59.125 91.75C58.375 91.5833 57.6667 91.7917 57 92.375C56.3333 92.875 55.7083 93.4583 55.125 94.125C52.7083 93.7917 50.3333 93.75 48 94C45.6667 94.25 43.5 94.4583 41.5 94.625C41.0833 94.7083 40.9167 94.9583 41 95.375C41.0833 95.7083 41 95.9583 40.75 96.125C38.1667 95.2917 35.5 94.9583 32.75 95.125C30.0833 95.2917 27.3333 95.7083 24.5 96.375C21.75 96.9583 18.9167 97.5833 16 98.25C13.0833 99 10.125 99.4167 7.125 99.5ZM108 22.125C107.917 22.5417 107.708 22.7917 107.375 22.875C107.125 22.875 106.917 23.0833 106.75 23.5C106.417 24.4167 106.208 25 106.125 25.25C106.042 25.4167 105.958 25.5417 105.875 25.625C105.792 25.625 105.667 25.7083 105.5 25.875C105.417 26.0417 105.208 26.5417 104.875 27.375C104.292 28.5417 103.542 29.75 102.625 31C101.792 32.1667 101.25 33.3333 101 34.5C99.8333 35.5 98.375 36.7917 96.625 38.375C94.9583 39.875 93.375 40.9167 91.875 41.5C91.125 41.1667 89.9167 40.6667 88.25 40C86.6667 39.25 85.125 38.4167 83.625 37.5C82.2083 36.5 81.125 35.5 80.375 34.5C79.625 33.4167 79.7083 32.375 80.625 31.375C82.125 29.7917 83.4167 27.9167 84.5 25.75C85.6667 23.5 86.6667 21.125 87.5 18.625C88.4167 16.0417 89.1667 13.4167 89.75 10.75C90.4167 8 91 5.375 91.5 2.875C91.8333 3.20833 92.1667 3.33333 92.5 3.25C92.9167 3.08333 93.25 2.875 93.5 2.625C93.8333 2.29167 94.125 1.91667 94.375 1.5C94.7083 1.08333 94.9583 0.75 95.125 0.5C95.625 0.916667 96.4583 1.41667 97.625 2C98.875 2.58333 100.167 3.16667 101.5 3.75C102.833 4.25 104.083 4.70833 105.25 5.125C106.417 5.54167 107.25 5.79167 107.75 5.875C108.75 7.45833 109.292 8.91667 109.375 10.25C109.458 11.5 109.667 12.8333 110 14.25C109.5 14.6667 109.208 15.375 109.125 16.375C109.042 17.2917 108.958 17.9583 108.875 18.375C108.792 19.0417 108.625 19.4583 108.375 19.625C108.208 19.7083 108.042 20.0417 107.875 20.625C107.792 20.7917 107.792 21.0417 107.875 21.375C108.042 21.7083 108.083 21.9583 108 22.125ZM183 95.75C182.167 96.1667 181.375 96.5417 180.625 96.875C179.958 97.2083 179.167 97.375 178.25 97.375C175 94.9583 173.292 90.75 173.125 84.75C173.042 78.75 174.333 71.125 177 61.875C177.417 61.625 177.625 61.125 177.625 60.375L176.5 59.125C176.167 59.125 175.833 59.1667 175.5 59.25C175.25 59.3333 175.042 59.625 174.875 60.125C172.708 61.7083 170.333 63.375 167.75 65.125C165.167 66.7917 162.458 68.375 159.625 69.875C156.875 71.2917 154.042 72.4583 151.125 73.375C148.292 74.2917 145.5 74.75 142.75 74.75C135.75 74.75 130.5 71.2083 127 64.125L126 62.25L125 63.875C124.75 64.2083 124.375 64.9167 123.875 66C123.375 67 122.875 68.1667 122.375 69.5C121.875 70.8333 121.417 72.2083 121 73.625C120.667 74.9583 120.542 76.125 120.625 77.125C119.875 77.875 119.083 78.75 118.25 79.75C117.417 80.75 116.792 81.875 116.375 83.125C116.208 83.7917 116.292 84.4167 116.625 85C116.458 85.75 116.083 86.3333 115.5 86.75C115.167 87.1667 114.792 87.5833 114.375 88C114.042 88.3333 113.75 88.7083 113.5 89.125C113.333 89.5417 113.208 89.9583 113.125 90.375C113.125 90.7917 113.083 91.2083 113 91.625C113 92.2083 112.917 92.75 112.75 93.25C111.333 96.1667 110.208 98.0417 109.375 98.875C108.542 99.7917 107.417 100.25 106 100.25C105.333 100.25 104.25 100.125 102.75 99.875C101.667 98.7083 100.667 97.125 99.75 95.125C98.9167 93.0417 98.25 90.8333 97.75 88.5C97.3333 86.1667 97.125 83.8333 97.125 81.5C97.2083 79.0833 97.625 77 98.375 75.25C98.375 75.1667 98.7083 74.3333 99.375 72.75C100.042 71.1667 100.875 69.125 101.875 66.625C102.958 64.125 104.167 61.375 105.5 58.375C106.833 55.2917 108.167 52.3333 109.5 49.5C110.833 46.5833 112.083 43.9167 113.25 41.5C114.5 39.0833 115.542 37.25 116.375 36C117.042 35 117.625 34.0833 118.125 33.25C118.708 32.3333 119.25 31.4583 119.75 30.625C121.25 28.0417 122.667 25.9167 124 24.25C125.417 22.5 127.458 21.125 130.125 20.125C131.958 20.875 133.292 21.75 134.125 22.75L134.375 24.125C134.708 24.9583 135.208 25.375 135.875 25.375C136.792 25.625 137.542 25.875 138.125 26.125C138.792 26.2917 139.5 26.4583 140.25 26.625C140.833 27.2917 141.375 28.0833 141.875 29C142.542 30 143.167 31 143.75 32C144.417 32.9167 144.917 33.875 145.25 34.875C145.667 35.7917 145.875 36.75 145.875 37.75C145.958 38.75 145.792 39.7917 145.375 40.875L145.5 42.125C145.917 42.875 146 43.9167 145.75 45.25C145.667 45.8333 145.625 46.4583 145.625 47.125C145.625 47.7083 145.708 48.375 145.875 49.125C147.375 50.2917 148.708 50.875 149.875 50.875C151.208 50.875 152.417 50.5833 153.5 50C154.667 49.3333 155.75 48.6667 156.75 48C157.417 47.5 158.083 47.0833 158.75 46.75C159.417 46.3333 160.083 46.0833 160.75 46C162.25 44.5833 163.583 43.3333 164.75 42.25C166 41.1667 167.292 40.0833 168.625 39C171.125 37 173.542 34.8333 175.875 32.5C178.208 30.1667 180.083 27.25 181.5 23.75C182.333 23.25 183.208 23 184.125 23C185.042 23 186 23.2083 187 23.625C188 24.0417 188.958 24.4583 189.875 24.875C190.125 25.0417 190.333 25.1667 190.5 25.25C190.75 25.3333 190.958 25.4167 191.125 25.5C191.125 26.3333 191.458 27.0417 192.125 27.625C192.458 27.875 192.667 28.0417 192.75 28.125C192.833 28.2083 192.958 28.2917 193.125 28.375C194.375 29.0417 195.167 29.7083 195.5 30.375C196.083 32.2917 197.125 33.75 198.625 34.75C198.458 35.5833 198.458 36.375 198.625 37.125C198.875 37.7917 199.167 38.5 199.5 39.25C199.583 39.5 199.667 39.75 199.75 40C199.833 40.25 199.958 40.5417 200.125 40.875L197.75 40.625L198.125 43C198.292 44.1667 198.167 45.4583 197.75 46.875C197.417 48.2917 197 49.4167 196.5 50.25C196.583 52.4167 196.625 54.125 196.625 55.375C196.708 56.5417 196.667 57.6667 196.5 58.75C196.333 59.75 196.083 60.7083 195.75 61.625C195.5 62.5417 195.125 63.5417 194.625 64.625C194.958 69.9583 194.333 74.8333 192.75 79.25C191.25 83.5833 189.667 87.6667 188 91.5C187.833 91.9167 187.625 92.3333 187.375 92.75C187.208 93.1667 187.042 93.5833 186.875 94C186.125 94.25 185.458 94.5417 184.875 94.875C184.292 95.125 183.667 95.4167 183 95.75ZM274.625 89.25C275.042 91.75 274.875 93.7083 274.125 95.125C273.458 96.5417 272.458 97.5833 271.125 98.25C269.875 99 268.417 99.4167 266.75 99.5C265.083 99.5833 263.5 99.5 262 99.25C261.167 98.0833 260.417 96.625 259.75 94.875C259.083 93.125 258.458 91.3333 257.875 89.5C257.292 87.5833 256.75 85.7083 256.25 83.875C255.833 82.0417 255.458 80.4167 255.125 79C255.542 78 255.792 76.875 255.875 75.625C256.042 74.2917 256.125 72.9583 256.125 71.625C256.208 70.2917 256.25 68.9583 256.25 67.625C256.333 66.2083 256.458 64.875 256.625 63.625C257.208 60.125 258.042 56.7917 259.125 53.625C260.292 50.4583 261.208 47.1667 261.875 43.75C262.042 43 261.958 42.2917 261.625 41.625C261.375 40.9583 261.333 40.3333 261.5 39.75C261.583 39.4167 261.833 39.2083 262.25 39.125C262.667 38.9583 262.917 38.6667 263 38.25C263.25 37.3333 263.292 36.5833 263.125 36C263.042 35.4167 263.208 34.7083 263.625 33.875C264.042 33.2083 264.542 32.25 265.125 31C265.792 29.6667 266.042 28.2917 265.875 26.875C266.625 26.375 267.333 25.7917 268 25.125C268.667 24.4583 269.333 23.875 270 23.375C270.75 22.7917 271.542 22.2917 272.375 21.875C273.292 21.4583 274.375 21.25 275.625 21.25C276.292 22.0833 276.708 23 276.875 24C277.125 25 277.333 26 277.5 27C277.75 28 278.083 28.9583 278.5 29.875C278.917 30.7083 279.625 31.375 280.625 31.875C280.625 32.5417 280.625 33.375 280.625 34.375C280.625 35.375 280.667 36.375 280.75 37.375C280.833 38.2917 281 39.1667 281.25 40C281.583 40.75 282.083 41.25 282.75 41.5C281.25 45.5 279.833 49.4583 278.5 53.375C277.25 57.2917 276.208 61.25 275.375 65.25C274.542 69.1667 274 73.125 273.75 77.125C273.583 81.125 273.875 85.1667 274.625 89.25ZM314.75 75.25C314 75.4167 313.458 75.875 313.125 76.625C312.792 77.2917 312.458 78 312.125 78.75C311.875 79.5 311.583 80.2083 311.25 80.875C311 81.4583 310.583 81.75 310 81.75C309.917 82.4167 309.667 83 309.25 83.5C308.917 84 308.583 84.5417 308.25 85.125C307.917 85.625 307.667 86.2083 307.5 86.875C307.333 87.4583 307.417 88.1667 307.75 89C307.083 89.5 306.667 90.2083 306.5 91.125C306.333 92.0417 306.125 92.9167 305.875 93.75C305.708 94.5833 305.375 95.2917 304.875 95.875C304.375 96.4583 303.458 96.7083 302.125 96.625C301.875 96.9583 301.833 97.1667 302 97.25C302.167 97.3333 302.292 97.625 302.375 98.125C301.458 97.9583 300.75 98 300.25 98.25C299.833 98.5833 299.292 98.7917 298.625 98.875C297.042 98.375 295.708 97.5 294.625 96.25C293.625 95 292.708 93.625 291.875 92.125C291.125 90.5417 290.417 88.9583 289.75 87.375C289.167 85.7917 288.583 84.4167 288 83.25C288.25 82.3333 288.292 81.4583 288.125 80.625C287.958 79.7083 287.667 78.9583 287.25 78.375C291.333 69.7083 295.792 60.4583 300.625 50.625C305.458 40.7917 310.042 31.0833 314.375 21.5C316.292 22.25 318.167 23.125 320 24.125C321.917 25.0417 323.625 26.125 325.125 27.375C326.708 28.625 328.042 30.0833 329.125 31.75C330.208 33.3333 330.917 35.125 331.25 37.125C331.083 37.625 330.875 37.8333 330.625 37.75C330.458 37.5833 330.292 37.625 330.125 37.875C330.458 38.2917 330.625 38.5833 330.625 38.75C330.708 38.9167 330.708 39.0833 330.625 39.25C330.625 39.4167 330.625 39.6667 330.625 40C330.625 40.25 330.75 40.625 331 41.125C330.667 41.0417 330.417 41.0833 330.25 41.25C330.167 41.4167 329.917 41.4167 329.5 41.25C329.833 42.1667 329.917 42.9167 329.75 43.5C329.667 44.0833 329.5 44.625 329.25 45.125C329 45.5417 328.792 46.0417 328.625 46.625C328.458 47.125 328.5 47.7917 328.75 48.625C328.5 48.625 328.292 48.7083 328.125 48.875C328.042 48.9583 327.958 49.0833 327.875 49.25C327.792 49.3333 327.667 49.4583 327.5 49.625C327.417 49.7083 327.25 49.7083 327 49.625C327.25 51.4583 327.333 53.2917 327.25 55.125C327.167 56.9583 327.083 58.8333 327 60.75C327 62.5833 327.042 64.5417 327.125 66.625C327.208 68.625 327.5 70.7083 328 72.875C331 71.125 333.375 68.875 335.125 66.125C336.958 63.375 338.417 60.2917 339.5 56.875C340.667 53.4583 341.542 49.7917 342.125 45.875C342.708 41.9583 343.333 37.9583 344 33.875C344.75 33.125 345.333 32.2083 345.75 31.125C346.167 30.0417 346.542 28.9167 346.875 27.75C347.208 26.5 347.542 25.2917 347.875 24.125C348.208 22.875 348.625 21.75 349.125 20.75C350.375 20.9167 351.417 21.3333 352.25 22C353.167 22.5833 354 23.25 354.75 24C355.5 24.6667 356.292 25.3333 357.125 26C357.958 26.5833 359 26.9583 360.25 27.125C361.25 28.5417 362.167 29.9167 363 31.25C363.833 32.5833 364.375 34 364.625 35.5C364.208 36.1667 363.875 36.9167 363.625 37.75C363.458 38.5833 363.25 39.4167 363 40.25C362.75 41.0833 362.417 41.875 362 42.625C361.583 43.2917 361 43.875 360.25 44.375C360 46.5417 359.667 48.5417 359.25 50.375C358.917 52.125 358.542 53.875 358.125 55.625C357.792 57.375 357.5 59.2083 357.25 61.125C357 62.9583 356.917 65 357 67.25C356.333 69.1667 355.625 71.2083 354.875 73.375C354.125 75.5417 353.542 77.5 353.125 79.25C351.792 80.3333 350.75 81.625 350 83.125C349.25 84.625 348.458 86.125 347.625 87.625C347.292 87.9583 347.083 88.0417 347 87.875C346.917 87.7083 346.625 87.5833 346.125 87.5C346.208 87.8333 346.208 88.0833 346.125 88.25C346.042 88.4167 345.917 88.5833 345.75 88.75C345.667 88.8333 345.583 89 345.5 89.25C345.5 89.5 345.583 89.8333 345.75 90.25C344.583 90.75 343.542 91.4583 342.625 92.375C341.708 93.2917 340.708 94.125 339.625 94.875C338.625 95.625 337.375 96.125 335.875 96.375C334.458 96.625 332.583 96.3333 330.25 95.5C326.833 93 323.792 90.125 321.125 86.875C318.542 83.625 316.417 79.75 314.75 75.25Z" fill="#00C2FF" fill-opacity="0.79"/>
</svg>
